<?xml version="1.0" standalone="no"?>
<!DOCTYPE svg PUBLIC "-//W3C//DTD SVG 20010904//EN"
 "http://www.w3.org/TR/2001/REC-SVG-20010904/DTD/svg10.dtd">
<svg version="1.0" xmlns="http://www.w3.org/2000/svg"
 width="379.000000pt" height="379.000000pt" viewBox="0 0 379.000000 379.000000"
 preserveAspectRatio="xMidYMid meet">
<metadata>
Created by potrace 1.11, written by Peter Selinger 2001-2013
</metadata>
<g transform="translate(0.000000,379.000000) scale(0.100000,-0.100000)"
fill="#000000" stroke="none">
<path d="M0 1895 l0 -1895 1895 0 1895 0 0 1895 0 1895 -1895 0 -1895 0 0
-1895z m3771 1850 c0 -34 0 -3680 0 -3710 -1 -20 -7 -20 -1863 -18 -1025 1
-1870 2 -1878 2 -13 1 -15 214 -13 1863 1 1025 2 1870 2 1878 1 13 216 15
1876 15 l1875 0 1 -30z"/>
<path d="M1877 2904 c-1 -1 -74 -4 -162 -8 -88 -3 -178 -8 -200 -10 -22 -3
-71 -7 -110 -11 -38 -3 -81 -8 -95 -10 -14 -2 -50 -7 -80 -11 -30 -4 -57 -8
-60 -9 -3 -1 -27 -5 -55 -9 -178 -28 -412 -101 -523 -162 -211 -118 -289 -375
-259 -851 4 -61 9 -118 11 -125 3 -7 7 -31 10 -54 9 -76 45 -229 70 -302 50
-149 115 -220 262 -288 124 -57 327 -111 479 -129 28 -3 61 -8 75 -10 26 -5
103 -11 235 -20 164 -12 566 -6 725 10 19 2 67 7 105 10 67 6 296 38 360 50
310 61 506 135 597 226 127 127 203 432 202 809 -1 296 -57 537 -147 636 -30
34 -108 79 -197 114 -54 21 -250 75 -313 85 -164 28 -205 33 -297 41 -36 3
-76 7 -90 10 -47 7 -535 24 -543 18z m350 -118 c95 -4 178 -8 185 -10 7 -3 47
-7 88 -11 81 -6 97 -8 235 -31 236 -40 455 -116 506 -177 44 -52 93 -230 105
-379 26 -317 -18 -655 -109 -834 -40 -79 -100 -125 -228 -174 -58 -22 -185
-59 -228 -66 -14 -3 -34 -7 -43 -10 -10 -3 -30 -7 -45 -10 -16 -2 -50 -9 -78
-14 -85 -17 -335 -48 -440 -55 -55 -4 -120 -9 -145 -11 -65 -5 -485 -5 -550 1
-30 2 -89 7 -130 10 -89 8 -253 31 -318 46 -26 6 -58 13 -72 15 -14 3 -61 16
-105 31 -155 50 -249 110 -288 181 -40 74 -91 255 -103 365 -3 29 -7 58 -9 64
-2 7 -7 59 -11 115 -26 362 29 619 150 711 100 77 309 145 567 186 161 26 180
28 264 37 39 3 84 8 100 10 17 2 109 6 205 10 96 3 176 7 177 8 2 2 125 -1
320 -8z"/>
<path d="M2060 2510 c-85 -38 -180 -80 -210 -93 -30 -13 -127 -56 -215 -94
-445 -195 -447 -196 -442 -212 5 -17 367 -864 372 -869 3 -3 1035 445 1043
453 5 5 -39 113 -118 290 -15 33 -51 114 -80 180 -29 66 -60 138 -70 160 -38
86 -59 132 -85 193 -15 34 -30 62 -34 61 -3 0 -76 -31 -161 -69z"/>
</g>
</svg>
